<svg fill="none" height="87" viewBox="0 0 83 87" width="83" xmlns="http://www.w3.org/2000/svg" xmlns:xlink="http://www.w3.org/1999/xlink"><filter id="a" color-interpolation-filters="sRGB" filterUnits="userSpaceOnUse" height="85.623" width="82.9348" x=".01709" y=".80957"><feFlood flood-opacity="0" result="BackgroundImageFix"/><feColorMatrix in="SourceAlpha" result="hardAlpha" type="matrix" values="0 0 0 0 0 0 0 0 0 0 0 0 0 0 0 0 0 0 127 0"/><feOffset dx="5" dy="9"/><feGaussianBlur stdDeviation="12"/><feComposite in2="hardAlpha" operator="out"/><feColorMatrix type="matrix" values="0 0 0 0 1 0 0 0 0 0.619608 0 0 0 0 0.494118 0 0 0 0.08 0"/><feBlend in2="BackgroundImageFix" mode="normal" result="effect1_dropShadow_11_1207"/><feBlend in="SourceGraphic" in2="effect1_dropShadow_11_1207" mode="normal" result="shape"/></filter><linearGradient id="b" gradientUnits="userSpaceOnUse" x1="36" x2="33.5" y1="20" y2="64"><stop offset=".277018" stop-color="#ffa68c"/><stop offset="1" stop-color="#ff926a"/></linearGradient><g fill="url(#b)" filter="url(#a)"><path d="m32.855 27.6354c2.3262.9322 5.2512-.9051 6.5329-4.1038 1.2818-3.1986.4351-6.5473-1.8912-7.4795-2.3262-.9322-5.2512.9051-6.533 4.1037-1.2817 3.1986-.435 6.5474 1.8913 7.4796z"/><path d="m28.3512 47.3612c1.4815.8554 1.9428 1.7724 2.4057 2.6924.4658.9259.9331 1.8548 2.4433 2.7267 4.4872 2.5907 8.3144-3.0582 7.0473-7.719-.4138-1.5219-.451-2.9659-.4859-4.3203-.072-2.7937-.1341-5.2059-3.4704-7.1322-3.3346-1.9252-5.4524-.7741-7.9061.5594-1.1916.6476-2.4624 1.3383-3.9902 1.7406-4.6739 1.2308-7.6485 7.3719-3.1612 9.9626 1.5102.8719 2.5482.8122 3.583.7526 1.0282-.0591 2.053-.1181 3.5345.7372z"/><path d="m50.8965 23.7608c1.9704 1.5485 1.8418 5.0002-.2875 7.7096-2.1292 2.7093-5.4526 3.6504-7.423 2.1019-1.9705-1.5485-1.8418-5.0002.2874-7.7096s5.4526-3.6504 7.4231-2.1019z"/><path d="m22.317 30.4886c1.8745.1361 3.5412-1.7797 3.7226-4.279.1815-2.4994-1.191-4.6358-3.0655-4.7719s-3.5411 1.7797-3.7226 4.279c-.1815 2.4994 1.191 4.6358 3.0655 4.7719z"/><path d="m53.4929 39.0253c1.0551 1.5553.2293 3.9566-1.8445 5.3634-2.0737 1.4068-4.6101 1.2864-5.6652-.2689-1.0552-1.5553-.2294-3.9566 1.8444-5.3634 2.0737-1.4068 4.6102-1.2864 5.6653.2689z"/></g></svg>